<svg xmlns="http://www.w3.org/2000/svg" height="800" width="1200" viewBox="-44.94 -37.9265 389.48 227.559"><defs><clipPath clipPathUnits="userSpaceOnUse" id="c"><path d="M-.388-.473h5.87v9.9h-5.87z"/></clipPath><clipPath clipPathUnits="userSpaceOnUse" id="b"><path d="M0 0h594v792H0z"/></clipPath><clipPath clipPathUnits="userSpaceOnUse" id="a"><path d="M1 0h117.842v119.55H1z"/></clipPath></defs><g clip-path="url(#a)" transform="matrix(4.05632 0 0 -4.05632 -158.968 337.141)"><g clip-path="url(#b)"><g clip-path="url(#c)" fill="#287ac7" transform="matrix(101.192 0 0 80 39.251 37.843)"><path d="M0 .215h.05v.258H0zm0 .292h.05v.059H0zM.14.215H.088v.258H.14v-.04S.155.48.198.48c.045 0 .07-.042.07-.082V.215H.216v.161C.216.384.208.418.18.418.15.416.14.387.14.371M.494.32C.449.32.445.264.445.264H.54S.538.32.494.32v.053c.082 0 .1-.107.1-.117 0-.004.004-.004.004 0v.31h.05V.215H.446S.451.153.494.153c.034 0 .041.033.041.033h.052C.587.18.57.098.494.098.412.098.39.202.39.211H.361c-.05 0-.05.042-.05.053v.158H.277v.05H.31v.094h.051V.473H.4V.422H.362v-.13C.362.269.379.264.39.264h.003c0 .017.02.109.102.109M.706.219c.01 0 .019.01.019.024 0 .013-.008.024-.019.024V.27C.72.272.73.26.73.244.73.226.72.214.706.214"/><path d="M.713.25C.713.254.71.255.707.255H.702v-.01h.004c.004 0 .007 0 .007.005h.004C.717.244.714.241.71.24L.717.227H.713L.706.241H.702V.226H.698V.26h.01C.714.26.717.257.717.25"/><path d="M.706.214C.694.214.683.226.683.243c0 .016.01.029.023.029V.267C.696.267.688.257.688.243S.696.219.706.219"/></g></g></g></svg>